<svg width="40" height="40" viewBox="0 0 40 40" fill="none" xmlns="http://www.w3.org/2000/svg">
<path d="M11.1498 38.9412L1.05043 28.8012C-0.348845 27.3976 -0.350213 25.1213 1.04675 23.7164L1.05043 23.7127C25.847 -1.07543 24.3722 0.00698269 24.9612 0.00698269C25.5503 0.00664732 24.7839 -0.368221 39.6046 14.3976C39.8964 14.6907 39.8964 15.1658 39.6046 15.4602L16.2178 38.941C14.8172 40.3449 12.55 40.3449 11.1497 38.941L11.1498 38.9412ZM24.9612 1.81995L2.10456 24.7694C1.29004 25.5886 1.29004 26.914 2.10456 27.7331L12.2039 37.8782C13.0198 38.695 14.3399 38.695 15.1557 37.8782L38.0184 14.9288L24.9612 1.81995Z" fill="#282828"/>
<path d="M33.7754 20.2521L19.6613 6.0812C19.3694 5.78814 19.3694 5.31169 19.6613 5.01862C19.9532 4.72556 20.4277 4.72556 20.7196 5.01862L34.8329 19.1886C35.1248 19.4817 35.1258 19.9568 34.8329 20.2512C34.5423 20.5456 34.0674 20.5456 33.7759 20.2526L33.7754 20.2521Z" fill="#282828"/>
<path d="M17.9292 36.1638L3.81852 21.9938C3.52664 21.7007 3.52664 21.2243 3.81852 20.9312C4.11041 20.6382 4.58495 20.6382 4.87685 20.9312L18.9867 35.1012C19.2786 35.3943 19.2796 35.8694 18.9867 36.1638C18.6961 36.4569 18.2226 36.4582 17.9297 36.1638H17.9292Z" fill="#282828"/>
<path d="M10.8057 23.3726C10.3929 23.3726 10.058 23.0376 10.0566 22.6218C10.0566 22.422 10.1358 22.2309 10.2754 22.0894L20.8125 11.5099C21.1117 11.2246 21.5849 11.237 21.8708 11.5371C22.1453 11.8275 22.1453 12.2818 21.8708 12.5722L11.3346 23.1525C11.195 23.293 11.0046 23.3725 10.8056 23.3725L10.8057 23.3726Z" fill="#282828"/>
<path d="M14.0552 26.6342C13.6424 26.6342 13.3075 26.2992 13.3062 25.8835C13.3062 25.6836 13.3853 25.4925 13.5249 25.351L24.062 14.7716C24.3538 14.4785 24.8284 14.4785 25.1203 14.7716C25.4122 15.0646 25.4122 15.5411 25.1203 15.8341C14.1515 26.7278 14.6465 26.6342 14.0549 26.6342L14.0552 26.6342Z" fill="#282828"/>
<path d="M16.7706 29.6759C16.4787 29.3828 16.4777 28.9077 16.7706 28.6133L27.3076 18.0338C27.6069 17.7485 28.0801 17.7609 28.3659 18.061C28.6405 18.3514 28.6405 18.8057 28.3659 19.0961L17.8289 29.6756C17.537 29.97 17.0634 29.9699 16.7706 29.6759Z" fill="#282828"/>
<path d="M39.2522 40H13.6999C13.2871 40 12.9521 39.6637 12.9521 39.2493C12.9521 38.8348 13.2871 38.4985 13.6999 38.4985H39.2522C39.6649 38.4985 39.9999 38.8348 39.9999 39.2493C40.0002 39.6637 39.6653 40 39.2522 40Z" fill="#282828"/>
</svg>
